<?xml version="1.0" encoding="UTF-8" standalone="no"?>
<svg
   xmlns:dc="http://purl.org/dc/elements/1.1/"
   xmlns:cc="http://creativecommons.org/ns#"
   xmlns:rdf="http://www.w3.org/1999/02/22-rdf-syntax-ns#"
   xmlns:svg="http://www.w3.org/2000/svg"
   xmlns="http://www.w3.org/2000/svg"
   xmlns:sodipodi="http://sodipodi.sourceforge.net/DTD/sodipodi-0.dtd"
   xmlns:inkscape="http://www.inkscape.org/namespaces/inkscape"
   id="Warstwa_2"
   viewBox="0 0 296.99999 210"
   version="1.1"
   width="297mm"
   height="210mm"
   sodipodi:docname="parking-pass-id-template.svg"
   inkscape:version="0.92.4 (5da689c313, 2019-01-14)">
  <sodipodi:namedview
     pagecolor="#ffffff"
     bordercolor="#666666"
     borderopacity="1"
     objecttolerance="10"
     gridtolerance="10"
     guidetolerance="10"
     inkscape:pageopacity="0"
     inkscape:pageshadow="2"
     inkscape:window-width="2560"
     inkscape:window-height="1009"
     id="namedview919"
     showgrid="false"
     inkscape:document-units="mm"
     inkscape:zoom="0.53042659"
     inkscape:cx="62.642728"
     inkscape:cy="113.23"
     inkscape:window-x="1272"
     inkscape:window-y="-8"
     inkscape:window-maximized="1"
     inkscape:current-layer="Warstwa_2" />
  <metadata
     id="metadata457">
    <rdf:RDF>
      <cc:Work
         rdf:about="">
        <dc:format>image/svg+xml</dc:format>
        <dc:type
           rdf:resource="http://purl.org/dc/dcmitype/StillImage" />
        <dc:title></dc:title>
      </cc:Work>
    </rdf:RDF>
  </metadata>
  <defs
     id="defs4">
    <style
       id="style2">.cls-1{letter-spacing:0em;}.cls-2{letter-spacing:0em;}.cls-3{letter-spacing:-.02em;}.cls-4{font-size:16.56px;}.cls-4,.cls-5,.cls-6,.cls-7,.cls-8{fill:#231f20;}.cls-4,.cls-7,.cls-9{font-family:Lato-Medium, Lato;font-weight:500;}.cls-10{fill:#010101;}.cls-11{letter-spacing:-.12em;}.cls-12{letter-spacing:0em;}.cls-13{letter-spacing:-.01em;}.cls-14{letter-spacing:-.02em;}.cls-15{letter-spacing:-.02em;}.cls-16{letter-spacing:-.04em;}.cls-17{letter-spacing:-.02em;}.cls-18{letter-spacing:0em;}.cls-19{fill:none;stroke:#010101;stroke-miterlimit:10;stroke-width:4px;}.cls-20{letter-spacing:0em;}.cls-6{font-size:26px;}.cls-6,.cls-8{font-family:Lato-Bold, Lato;font-weight:700;}.cls-21{letter-spacing:0em;}.cls-22{letter-spacing:0em;}.cls-7{font-size:18.54px;}.cls-23{letter-spacing:0em;}.cls-8{font-size:43.26px;}.cls-9{fill:#fff;font-size:154.49px;}</style>
  </defs>
  <g
     id="QR-code"
     transform="translate(159.46484,124.38539)">
    <!--[place-for-qrcode]-->
    <!--    <svg-->
    <!--       id="svg7"-->
    <!--       version="1.1"-->
    <!--       height="170"-->
    <!--       width="170"-->
    <!--       y="20"-->
    <!--       x="220"-->
    <!--       viewBox="0 0 33 33">-->
    <!--      <path-->
    <!--         style="fill:#000000"-->
    <!--         inkscape:connector-curvature="0"-->
    <!--         d="M 0,0 H 1 V 1 H 0 Z m 16,16 h 1 v 1 h -1 z m 16,16 h 1 v 1 h -1 z"-->
    <!--         id="qrcode-parts" />-->
    <!--    </svg>-->
  </g>
  <g
     id="g967"
     transform="translate(-11.107655,-5.764016)">
    <path
       class="cls-10"
       d="M 294.07036,19.989669 V 201.53838 H 25.140379 V 19.989669 H 294.07036 m 1.3525,-1.352497 H 23.787881 V 202.89086 H 295.42286 Z"
       id="path340"
       inkscape:connector-curvature="0"
       style="fill:#010101;stroke-width:1" />
    <rect
       class="cls-10"
       width="68.909592"
       height="69.869865"
       id="rect342"
       x="23.787884"
       y="18.637173"
       style="fill:#010101;stroke-width:1" />
    <text
       y="72.080994"
       x="42.783653"
       class="cls-9"
       id="text346"
       style="font-weight:500;font-size:52.23671722px;font-family:Lato-Medium, Lato;fill:#ffffff;stroke-width:1">
      <tspan
         style="stroke-width:1"
         x="42.783653"
         y="72.080994"
         id="tspan344">1</tspan>
    </text>
    <text
       y="114.14146"
       x="36.463352"
       class="cls-8"
       id="text356"
       style="font-style:normal;font-variant:normal;font-weight:bold;font-stretch:normal;font-size:14.62722588px;font-family:sans-serif;-inkscape-font-specification:'sans-serif, Bold';font-variant-ligatures:normal;font-variant-caps:normal;font-variant-numeric:normal;font-feature-settings:normal;text-align:start;writing-mode:lr-tb;text-anchor:start;fill:#231f20;stroke-width:1">
      <tspan
         style="font-style:normal;font-variant:normal;font-weight:bold;font-stretch:normal;font-size:14.62722588px;font-family:sans-serif;-inkscape-font-specification:'sans-serif, Bold';font-variant-ligatures:normal;font-variant-caps:normal;font-variant-numeric:normal;font-feature-settings:normal;text-align:start;writing-mode:lr-tb;text-anchor:start;stroke-width:1"
         y="114.14146"
         x="36.463352"
         id="tspan940"
         sodipodi:role="line">Targówek</tspan>
    </text>
    <text
       y="79.607628"
       x="167.99083"
       class="cls-6"
       id="text362"
       style="font-weight:700;font-size:8.79121399px;font-family:Lato-Bold, Lato;fill:#231f20;stroke-width:1">
      <tspan
         class="cls-14"
         x="167.99083"
         y="79.607628"
         id="tspan358"
         style="letter-spacing:-0.02em;stroke-width:1">P</tspan>
      <tspan
         class="cls-23"
         x="173.26558"
         y="79.607628"
         id="tspan360"
         style="letter-spacing:0em;stroke-width:1">arking pod trybunami</tspan>
    </text>
    <text
       y="199.00038"
       x="27.274982"
       class="cls-7"
       id="text384"
       style="font-style:normal;font-variant:normal;font-weight:normal;font-stretch:normal;font-size:4.37440348px;font-family:sans-serif;-inkscape-font-specification:'sans-serif, Normal';font-variant-ligatures:normal;font-variant-caps:normal;font-variant-numeric:normal;font-feature-settings:normal;text-align:start;writing-mode:lr-tb;text-anchor:start;fill:#231f20;stroke-width:1">
      <tspan
         style="stroke-width:1"
         y="199.00038"
         x="27.274982"
         id="tspan936"
         sodipodi:role="line">Wpisz numer rejestracyjny</tspan>
    </text>
    <text
       y="141.97115"
       x="28.153051"
       class="cls-7"
       id="text396"
       style="font-weight:500;font-size:6.26881218px;font-family:Lato-Medium, Lato;fill:#231f20;stroke-width:1">
      <tspan
         class="cls-21"
         x="28.153051"
         y="141.97115"
         id="tspan386"
         style="letter-spacing:0em;stroke-width:1">P</tspan>
      <tspan
         style="stroke-width:1"
         x="31.929901"
         y="141.97115"
         id="tspan388">i</tspan>
      <tspan
         class="cls-12"
         x="33.454826"
         y="141.97115"
         id="tspan390"
         style="letter-spacing:0em;stroke-width:1">ą</tspan>
      <tspan
         class="cls-2"
         x="36.545288"
         y="141.97115"
         id="tspan392"
         style="letter-spacing:0em;stroke-width:1">t</tspan>
      <tspan
         style="stroke-width:1"
         x="38.79718"
         y="141.97115"
         id="tspan394">ek</tspan>
    </text>
    <text
       y="149.6398"
       x="113.00684"
       class="cls-4"
       transform="scale(1.0583005,0.9449112)"
       id="text406"
       style="font-weight:500;font-size:5.92577028px;font-family:Lato-Medium, Lato;fill:#231f20;stroke-width:1.0583005">
      <tspan
         class="cls-22"
         x="113.00684"
         y="149.6398"
         id="tspan398"
         style="letter-spacing:0em;stroke-width:1.0583005">S</tspan>
      <tspan
         style="stroke-width:1.0583005"
         x="116.21664"
         y="149.6398"
         id="tspan400">ob</tspan>
      <tspan
         class="cls-1"
         x="122.91891"
         y="149.6398"
         id="tspan402"
         style="letter-spacing:0em;stroke-width:1.0583005">o</tspan>
      <tspan
         style="stroke-width:1.0583005"
         x="126.23248"
         y="149.6398"
         id="tspan404">ta</tspan>
    </text>
    <text
       y="149.6398"
       x="197.15588"
       class="cls-4"
       transform="scale(1.0583005,0.9449112)"
       id="text412"
       style="font-weight:500;font-size:5.92577028px;font-family:Lato-Medium, Lato;fill:#231f20;stroke-width:1.0583005">
      <tspan
         class="cls-18"
         x="197.15588"
         y="149.6398"
         id="tspan408"
         style="letter-spacing:0em;stroke-width:1.0583005">N</tspan>
      <tspan
         style="stroke-width:1.0583005"
         x="201.64674"
         y="149.6398"
         id="tspan410">iedziela</tspan>
    </text>
    <line
       class="cls-19"
       x1="23.977224"
       y1="88.141861"
       x2="294.04666"
       y2="88.141861"
       id="line414"
       style="fill:none;stroke:#010101;stroke-width:2;stroke-miterlimit:10;stroke-dasharray:none" />
    <line
       class="cls-19"
       x1="23.977224"
       y1="132.05736"
       x2="294.04666"
       y2="132.05736"
       id="line416"
       style="fill:none;stroke:#010101;stroke-width:2;stroke-miterlimit:10;stroke-dasharray:none" />
    <line
       class="cls-19"
       x1="160.83952"
       y1="20.233118"
       x2="160.83952"
       y2="87.641434"
       id="line418"
       style="fill:none;stroke:#010101;stroke-width:2;stroke-miterlimit:10;stroke-dasharray:none" />
    <line
       class="cls-19"
       x1="114.62817"
       y1="132.80461"
       x2="114.62817"
       y2="201.82578"
       id="line420"
       style="fill:none;stroke:#010101;stroke-width:2;stroke-miterlimit:10;stroke-dasharray:none" />
    <line
       class="cls-19"
       x1="204.68401"
       y1="132.80461"
       x2="204.68401"
       y2="201.82578"
       id="line422"
       style="fill:none;stroke:#010101;stroke-width:2;stroke-miterlimit:10;stroke-dasharray:none" />
    <g
       style="stroke-width:2.95749831"
       transform="matrix(0.33812361,0,0,0.33812361,23.787881,18.637172)"
       id="matka_z_dzieckiem">
      <circle
         class="cls-10"
         cx="450.57999"
         cy="34.419998"
         r="9.6599998"
         id="circle424"
         style="fill:#010101;stroke-width:2.95749831" />
      <path
         class="cls-10"
         d="M 475.69,72.04 462.16,45.89 c -0.6,-1.16 -1.8,-1.89 -3.1,-1.89 h -16.69 c -1.29,0 -2.48,0.72 -3.09,1.86 l -13.8,26.15 c -0.9,1.7 -0.25,3.82 1.46,4.72 1.7,0.9 3.82,0.25 4.72,-1.46 l 10.74,-20.35 0.76,1.9 -12.11,27.85 c -1.11,2.56 0.75,5.42 3.53,5.44 l 5.83,0.05 v 18.03 c 0,2.31 1.88,4.19 4.19,4.19 2.31,0 4.19,-1.88 4.19,-4.19 V 90.24 l 4.82,0.04 v 17.84 c 0,2.31 1.88,4.19 4.19,4.19 2.31,0 4.19,-1.88 4.19,-4.19 V 90.36 l 4.52,0.04 c 2.81,0.03 4.72,-2.84 3.61,-5.42 L 458,56.55 l 0.9,-1.76 10.58,20.44 c 0.89,1.71 2.99,2.38 4.7,1.5 1.71,-0.89 2.38,-2.99 1.5,-4.7 z"
         id="path426"
         inkscape:connector-curvature="0"
         style="fill:#010101;stroke-width:2.95749831" />
      <path
         class="cls-10"
         d="m 474.3,81.4 c 0,0.09 0,0.18 0,0.28 0,11.1 9.08,20.09 20.27,20.09 11.19,0 20.27,-8.99 20.27,-20.09 0,-0.09 0,-0.18 0,-0.28 h -40.53 z"
         id="path428"
         inkscape:connector-curvature="0"
         style="fill:#010101;stroke-width:2.95749831" />
      <path
         class="cls-10"
         d="m 496.27,78.24 16.72,-0.11 c 0.59,0 1.04,-0.51 0.98,-1.09 -0.31,-3.1 -2.05,-11.9 -11.75,-13.76 -0.46,-0.09 -0.92,0.15 -1.11,0.57 l -5.76,13 c -0.29,0.66 0.19,1.4 0.92,1.4 z"
         id="path430"
         inkscape:connector-curvature="0"
         style="fill:#010101;stroke-width:2.95749831" />
      <circle
         class="cls-10"
         cx="484.01999"
         cy="106.83"
         r="5.3200002"
         id="circle432"
         style="fill:#010101;stroke-width:2.95749831" />
      <circle
         class="cls-10"
         cx="505.82999"
         cy="106.83"
         r="5.3200002"
         id="circle434"
         style="fill:#010101;stroke-width:2.95749831" />
    </g>
    <g
       style="stroke-width:2.95749831"
       transform="matrix(0.33812361,0,0,0.33812361,23.787881,18.637172)"
       id="inwalida">
      <path
         class="cls-10"
         d="m 598.87,36.83 c 5.05,0 9.14,-4.09 9.14,-9.14 0,-5.05 -4.1,-9.15 -9.14,-9.15 -5.04,0 -9.15,4.09 -9.15,9.15 0,5.06 4.1,9.14 9.15,9.14 z"
         id="path437"
         inkscape:connector-curvature="0"
         style="fill:#010101;stroke-width:2.95749831" />
      <path
         class="cls-10"
         d="m 613,88.65 c -2.43,8.44 -10.21,14.63 -19.42,14.63 -11.15,0 -20.22,-9.07 -20.22,-20.22 0,-8.25 4.98,-15.36 12.08,-18.5 v -8.57 c -11.64,3.5 -20.14,14.31 -20.14,27.07 0,15.59 12.68,28.28 28.28,28.28 11.36,0 21.16,-6.75 25.65,-16.44 l -3.19,-6.27 c -0.9,0 -1.93,0.02 -3.04,0.03 z"
         id="path439"
         inkscape:connector-curvature="0"
         style="fill:#010101;stroke-width:2.95749831" />
      <path
         class="cls-10"
         d="M 639.65,99.5 627.4,75.42 c -0.91,-1.8 -2.76,-2.94 -4.78,-2.94 H 606.93 V 68.9 h 13.5 c 1.35,0 2.48,-0.7 3.21,-1.72 0.48,-0.66 0.81,-1.43 0.81,-2.31 0,-2.22 -1.8,-4.03 -4.03,-4.03 h -13.5 V 48.71 c 0,-3.34 -2.47,-8.06 -8.05,-8.06 -4.45,0 -8.06,3.61 -8.06,8.06 V 75 c 0,4.54 3.68,8.22 8.22,8.22 h 20.29 l 10.76,21.15 c 0.95,1.86 2.83,2.94 4.79,2.94 0.82,0 1.65,-0.19 2.43,-0.59 2.65,-1.34 3.7,-4.58 2.35,-7.22 z"
         id="path441"
         inkscape:connector-curvature="0"
         style="fill:#010101;stroke-width:2.95749831" />
    </g>
    <path
       class="cls-10"
       d="M 204.8974,20.101246 V 63.475747 H 161.5229 V 20.101246 h 43.3745 m 1.35249,-1.352487 h -46.07948 v 46.079485 h 46.07948 z"
       id="path444"
       inkscape:connector-curvature="0"
       style="fill:#010101;stroke-width:1" />
    <path
       class="cls-10"
       d="M 249.47523,20.101246 V 63.475747 H 206.10074 V 20.101246 h 43.37449 m 1.3525,-1.352487 h -46.07948 v 46.079485 h 46.07948 z"
       id="path446"
       inkscape:connector-curvature="0"
       style="fill:#010101;stroke-width:1" />
    <path
       class="cls-10"
       d="M 294.07493,20.101246 V 63.475747 H 250.70044 V 20.101246 h 43.37449 m 1.3525,-1.352487 h -46.07949 v 46.079485 h 46.07949 z"
       id="path448"
       inkscape:connector-curvature="0"
       style="fill:#010101;stroke-width:1" />
    <g
       style="stroke-width:2.95749831"
       transform="matrix(0.33812361,0,0,0.33812361,23.787881,18.637172)"
       id="parking">
      <path
         class="cls-5"
         d="m 726.37,79.86 v 21.97 H 714.76 V 39.42 h 20.33 c 4.17,0 7.78,0.49 10.83,1.47 3.05,0.98 5.57,2.35 7.55,4.1 1.99,1.76 3.45,3.86 4.4,6.3 0.95,2.45 1.42,5.12 1.42,8.03 0,2.91 -0.5,5.79 -1.51,8.31 -1.01,2.52 -2.52,4.68 -4.53,6.5 -2.02,1.81 -4.53,3.22 -7.55,4.23 -3.02,1.01 -6.56,1.51 -10.62,1.51 h -8.72 z m 0,-9.06 h 8.72 c 2.13,0 3.98,-0.27 5.57,-0.8 1.58,-0.53 2.89,-1.29 3.93,-2.29 1.04,-0.99 1.81,-2.2 2.33,-3.63 0.52,-1.43 0.78,-3.01 0.78,-4.77 0,-1.76 -0.26,-3.18 -0.78,-4.53 -0.52,-1.35 -1.29,-2.5 -2.33,-3.45 -1.04,-0.95 -2.35,-1.68 -3.93,-2.18 -1.58,-0.5 -3.44,-0.76 -5.57,-0.76 h -8.72 v 22.4 z"
         id="path450"
         inkscape:connector-curvature="0"
         style="fill:#231f20;stroke-width:2.95749831" />
    </g>
  </g>
</svg>
