<?xml version="1.0" encoding="UTF-8" standalone="no"?>
<!-- Created with Inkscape (http://www.inkscape.org/) -->

<svg
   width="297mm"
   height="210mm"
   viewBox="0 0 297 210"
   version="1.1"
   id="svg564"
   inkscape:version="1.2.2 (732a01da63, 2022-12-09)"
   sodipodi:docname="parking-pass-id-template-3.svg"
   xml:space="preserve"
   xmlns:inkscape="http://www.inkscape.org/namespaces/inkscape"
   xmlns:sodipodi="http://sodipodi.sourceforge.net/DTD/sodipodi-0.dtd"
   xmlns="http://www.w3.org/2000/svg"
   xmlns:svg="http://www.w3.org/2000/svg"><sodipodi:namedview
     id="namedview566"
     pagecolor="#ffffff"
     bordercolor="#666666"
     borderopacity="1.0"
     inkscape:showpageshadow="false"
     inkscape:pageopacity="0.0"
     inkscape:pagecheckerboard="0"
     inkscape:deskcolor="#d1d1d1"
     inkscape:document-units="mm"
     showgrid="false"
     borderlayer="true"
     showguides="true"
     inkscape:zoom="1.0444209"
     inkscape:cx="795.17748"
     inkscape:cy="383.94482"
     inkscape:window-width="2560"
     inkscape:window-height="1009"
     inkscape:window-x="1272"
     inkscape:window-y="-8"
     inkscape:window-maximized="1"
     inkscape:current-layer="layer1"><sodipodi:guide
       position="-28.571472,200.0582"
       orientation="0,-1"
       id="guide4307"
       inkscape:locked="false" /><sodipodi:guide
       position="9.9432094,235.26969"
       orientation="1,0"
       id="guide4309"
       inkscape:locked="false" /><sodipodi:guide
       position="26.852999,11.515809"
       orientation="0,-1"
       id="guide4311"
       inkscape:locked="false" /><sodipodi:guide
       position="286.96864,233.82449"
       orientation="1,0"
       id="guide4313"
       inkscape:locked="false" /></sodipodi:namedview><defs
     id="defs561" /><g
     inkscape:label="Warstwa 1"
     inkscape:groupmode="layer"
     id="layer1"><g
       id="parking"
       transform="matrix(0.26458333,0,0,0.26458333,-246.95266,64.072548)"
       style="fill:none"><path
         class="cls-5"
         d="m 726.37,79.86 v 21.97 H 714.76 V 39.42 h 20.33 c 4.17,0 7.78,0.49 10.83,1.47 3.05,0.98 5.57,2.35 7.55,4.1 1.99,1.76 3.45,3.86 4.4,6.3 0.95,2.45 1.42,5.12 1.42,8.03 0,2.91 -0.5,5.79 -1.51,8.31 -1.01,2.52 -2.52,4.68 -4.53,6.5 -2.02,1.81 -4.53,3.22 -7.55,4.23 -3.02,1.01 -6.56,1.51 -10.62,1.51 h -8.72 z m 0,-9.06 h 8.72 c 2.13,0 3.98,-0.27 5.57,-0.8 1.58,-0.53 2.89,-1.29 3.93,-2.29 1.04,-0.99 1.81,-2.2 2.33,-3.63 0.52,-1.43 0.78,-3.01 0.78,-4.77 0,-1.76 -0.26,-3.18 -0.78,-4.53 -0.52,-1.35 -1.29,-2.5 -2.33,-3.45 -1.04,-0.95 -2.35,-1.68 -3.93,-2.18 -1.58,-0.5 -3.44,-0.76 -5.57,-0.76 h -8.72 v 22.4 z"
         id="path450"
         style="fill:none" /></g><rect
       style="opacity:1;vector-effect:none;fill:none;fill-opacity:1;stroke:#000000;stroke-width:2;stroke-linecap:round;stroke-linejoin:round;stroke-miterlimit:10;stroke-dasharray:none;stroke-dashoffset:0;stroke-opacity:1"
       id="rect3622"
       width="275.02542"
       height="186.54239"
       x="10.94321"
       y="10.9418" /><text
       xml:space="preserve"
       style="font-style:normal;font-variant:normal;font-weight:bold;font-stretch:normal;font-size:19.3805px;line-height:1.25;font-family:Roboto;-inkscape-font-specification:'Roboto, Bold';font-variant-ligatures:normal;font-variant-caps:normal;font-variant-numeric:normal;font-variant-east-asian:normal;letter-spacing:0px;word-spacing:0px;fill:#000000;fill-opacity:1;stroke:none;stroke-width:0.264582"
       x="163"
       y="100.2758"
       id="text8567"
       transform="scale(0.87761962,1.1394458)"><tspan
         sodipodi:role="line"
         id="nazwaZboru"
         x="163"
         y="100.2758"
         style="stroke-width:0.264582;-inkscape-font-specification:'Roboto, Bold';font-family:Roboto;font-weight:bold;font-style:normal;font-stretch:normal;font-variant:normal;font-size:19.38050116px;font-variant-ligatures:normal;font-variant-caps:normal;font-variant-numeric:normal;font-variant-east-asian:normal"
         text-anchor="middle">Warszawa-Białołęka</tspan></text><path
       style="fill:none;stroke:#000000;stroke-width:2;stroke-linecap:square;stroke-linejoin:miter;stroke-dasharray:none;stroke-opacity:1"
       d="M 10.94321,129.06416 H 285.96863"
       id="path4369"
       sodipodi:nodetypes="cc" /><path
       style="fill:none;stroke:#000000;stroke-width:2;stroke-linecap:square;stroke-linejoin:miter;stroke-dasharray:none;stroke-opacity:1"
       d="m 102.61754,129.06416 v 68.42003"
       id="path4571"
       sodipodi:nodetypes="cc" /><path
       style="fill:none;stroke:#000000;stroke-width:2;stroke-linecap:square;stroke-linejoin:miter;stroke-dasharray:none;stroke-opacity:1"
       d="m 194.20375,129.06416 v 68.42003"
       id="path4573"
       sodipodi:nodetypes="cc" /><text
       xml:space="preserve"
       style="font-style:normal;font-weight:normal;font-size:10.5833px;line-height:1.25;font-family:Roboto;letter-spacing:0px;word-spacing:0px;fill:#000000;fill-opacity:1;stroke:none;stroke-width:0.264583;-inkscape-font-specification:'Roboto, Normal';font-stretch:normal;font-variant:normal;font-variant-ligatures:normal;font-variant-caps:normal;font-variant-numeric:normal;font-variant-east-asian:normal"
       x="15.593238"
       y="140.31236"
       id="text4577"><tspan
         sodipodi:role="line"
         id="tspan423">PIĄTEK</tspan></text><text
       xml:space="preserve"
       style="font-style:normal;font-weight:normal;font-size:10.5833px;line-height:1.25;font-family:Roboto;letter-spacing:0px;word-spacing:0px;fill:#000000;fill-opacity:1;stroke:none;stroke-width:0.264583;-inkscape-font-specification:'Roboto, Normal';font-stretch:normal;font-variant:normal;font-variant-ligatures:normal;font-variant-caps:normal;font-variant-numeric:normal;font-variant-east-asian:normal"
       x="107.65731"
       y="140.39703"
       id="text4581"><tspan
         sodipodi:role="line"
         id="tspan4579"
         style="stroke-width:0.264583;-inkscape-font-specification:'Roboto, Normal';font-family:Roboto;font-weight:normal;font-style:normal;font-stretch:normal;font-variant:normal;font-size:10.58330002px;font-variant-ligatures:normal;font-variant-caps:normal;font-variant-numeric:normal;font-variant-east-asian:normal"
         x="107.65731"
         y="140.39703">SOBOTA</tspan></text><text
       xml:space="preserve"
       style="font-style:normal;font-weight:normal;font-size:10.5833px;line-height:1.25;font-family:Roboto;letter-spacing:0px;word-spacing:0px;fill:#000000;fill-opacity:1;stroke:none;stroke-width:0.264583;-inkscape-font-specification:'Roboto, Normal';font-stretch:normal;font-variant:normal;font-variant-ligatures:normal;font-variant-caps:normal;font-variant-numeric:normal;font-variant-east-asian:normal"
       x="199.13797"
       y="140.40762"
       id="text4585"><tspan
         sodipodi:role="line"
         id="tspan4583"
         style="stroke-width:0.264583;-inkscape-font-specification:'Roboto, Normal';font-family:Roboto;font-weight:normal;font-style:normal;font-stretch:normal;font-variant:normal;font-size:10.58330002px;font-variant-ligatures:normal;font-variant-caps:normal;font-variant-numeric:normal;font-variant-east-asian:normal"
         x="199.13797"
         y="140.40762">NIEDZIELA</tspan></text><g
       id="g8062"
       transform="matrix(1.0241899,0,0,1,-0.26471509,0)"
       style="stroke-width:0.98812"><rect
         style="opacity:1;fill:#000000;fill-opacity:1;stroke:none;stroke-width:1.97622;stroke-linecap:square;stroke-linejoin:miter;stroke-miterlimit:10;stroke-dasharray:none;stroke-dashoffset:0;stroke-opacity:1"
         id="rect4632"
         width="70.349586"
         height="72.816948"
         x="10.94321"
         y="10.9418" /><text
         xml:space="preserve"
         style="font-style:normal;font-weight:normal;font-size:58.351px;line-height:1.25;font-family:sans-serif;letter-spacing:0px;word-spacing:0px;fill:#ffffff;fill-opacity:1;stroke:none;stroke-width:0.26144"
         x="29.40044"
         y="67.901299"
         id="text3283"><tspan
           sodipodi:role="line"
           id="numerIdentyfikatora"
           style="fill:#ffffff;stroke-width:0.26144"
           x="29.40044"
           y="67.901299">4</tspan></text></g><rect
       style="opacity:1;fill:none;fill-opacity:1;stroke:#000000;stroke-width:2.00001;stroke-linecap:square;stroke-linejoin:miter;stroke-miterlimit:10;stroke-dasharray:none;stroke-dashoffset:0;stroke-opacity:1"
       id="qrCode"
       width="71.816948"
       height="71.816948"
       x="82.63633"
       y="10.9418" /><text
       xml:space="preserve"
       style="font-style:normal;font-variant:normal;font-weight:bold;font-stretch:normal;font-size:18.6893px;line-height:1.25;font-family:Roboto;-inkscape-font-specification:'Roboto, Bold';font-variant-ligatures:normal;font-variant-caps:normal;font-variant-numeric:normal;font-variant-east-asian:normal;letter-spacing:0px;word-spacing:0px;fill:#000000;fill-opacity:1;stroke:none;stroke-width:0.264583"
       x="184.5"
       y="138.27792"
       id="text6970"
       transform="scale(0.8059848,1.2407182)"><tspan
         sodipodi:role="line"
         id="d2rejnum"
         x="184.5"
         y="138.27792"
         style="stroke-width:0.264583;-inkscape-font-specification:'Roboto, Bold';font-family:Roboto;font-weight:bold;font-style:normal;font-stretch:normal;font-variant:normal;font-size:18.68930043px;font-variant-ligatures:normal;font-variant-caps:normal;font-variant-numeric:normal;font-variant-east-asian:normal"
         text-anchor="middle">AK 1234 AB</tspan></text><text
       xml:space="preserve"
       style="font-style:normal;font-variant:normal;font-weight:bold;font-stretch:normal;font-size:18.6893px;line-height:1.25;font-family:Roboto;-inkscape-font-specification:'Roboto, Bold';font-variant-ligatures:normal;font-variant-caps:normal;font-variant-numeric:normal;font-variant-east-asian:normal;letter-spacing:0px;word-spacing:0px;fill:#000000;fill-opacity:1;stroke:none;stroke-width:0.264583"
       x="70"
       y="138.27792"
       id="text7030"
       transform="scale(0.8059848,1.2407182)"><tspan
         sodipodi:role="line"
         id="d1rejnum"
         x="70"
         y="138.27792"
         style="stroke-width:0.264583;-inkscape-font-specification:'Roboto, Bold';font-family:Roboto;font-weight:bold;font-style:normal;font-stretch:normal;font-variant:normal;font-size:18.68930043px;font-variant-ligatures:normal;font-variant-caps:normal;font-variant-numeric:normal;font-variant-east-asian:normal"
         text-anchor="middle">WI 1041U</tspan></text><text
       xml:space="preserve"
       style="font-style:normal;font-variant:normal;font-weight:bold;font-stretch:normal;font-size:18.6893px;line-height:1.25;font-family:Roboto;-inkscape-font-specification:'Roboto, Bold';font-variant-ligatures:normal;font-variant-caps:normal;font-variant-numeric:normal;font-variant-east-asian:normal;letter-spacing:0px;word-spacing:0px;fill:#000000;fill-opacity:1;stroke:none;stroke-width:0.264583"
       x="298"
       y="138.27792"
       id="text7034"
       transform="scale(0.8059848,1.2407182)"><tspan
         sodipodi:role="line"
         id="d3rejnum"
         x="298"
         y="138.27792"
         style="stroke-width:0.264583;-inkscape-font-specification:'Roboto, Bold';font-family:Roboto;font-weight:bold;font-style:normal;font-stretch:normal;font-variant:normal;font-size:18.68930043px;font-variant-ligatures:normal;font-variant-caps:normal;font-variant-numeric:normal;font-variant-east-asian:normal"
         text-anchor="middle">AK 1234 AB</tspan></text><g
       id="g8057"><path
         style="fill:none;stroke:#000000;stroke-width:2;stroke-linecap:square;stroke-linejoin:miter;stroke-dasharray:none;stroke-opacity:1"
         d="m 154.49633,82.758745 h 131.4723"
         id="path4420"
         sodipodi:nodetypes="cc" /><text
         xml:space="preserve"
         style="font-style:normal;font-variant:normal;font-weight:bold;font-stretch:normal;font-size:10.1379px;line-height:1.25;font-family:sans-serif;-inkscape-font-specification:'sans-serif, Bold';font-variant-ligatures:normal;font-variant-caps:normal;font-variant-numeric:normal;font-variant-east-asian:normal;letter-spacing:0px;word-spacing:0px;fill:#000000;fill-opacity:1;stroke:none;stroke-width:0.264583"
         x="171.00624"
         y="68.69989"
         id="text4569"
         transform="scale(0.957918,1.0439307)"><tspan
           sodipodi:role="line"
           id="tspan4567"
           style="font-style:normal;font-variant:normal;font-weight:bold;font-stretch:normal;font-size:10.1379px;font-family:sans-serif;-inkscape-font-specification:'sans-serif, Bold';font-variant-ligatures:normal;font-variant-caps:normal;font-variant-numeric:normal;font-variant-east-asian:normal;stroke-width:0.264583"
           x="171.00624"
           y="68.69989">Parking pod trybunami</tspan></text><g
         id="g8038"><g
           id="g4489"
           transform="translate(-143.82068,-24.051963)"><g
             id="inwalida"
             transform="matrix(0.26458333,0,0,0.26458333,204.57043,39.723766)"><path
               class="cls-10"
               d="m 598.87,36.83 c 5.05,0 9.14,-4.09 9.14,-9.14 0,-5.05 -4.1,-9.15 -9.14,-9.15 -5.04,0 -9.15,4.09 -9.15,9.15 0,5.06 4.1,9.14 9.15,9.14 z"
               id="path437"
               style="fill:#010101" /><path
               class="cls-10"
               d="m 613,88.65 c -2.43,8.44 -10.21,14.63 -19.42,14.63 -11.15,0 -20.22,-9.07 -20.22,-20.22 0,-8.25 4.98,-15.36 12.08,-18.5 v -8.57 c -11.64,3.5 -20.14,14.31 -20.14,27.07 0,15.59 12.68,28.28 28.28,28.28 11.36,0 21.16,-6.75 25.65,-16.44 l -3.19,-6.27 c -0.9,0 -1.93,0.02 -3.04,0.03 z"
               id="path439"
               style="fill:#010101" /><path
               class="cls-10"
               d="M 639.65,99.5 627.4,75.42 c -0.91,-1.8 -2.76,-2.94 -4.78,-2.94 H 606.93 V 68.9 h 13.5 c 1.35,0 2.48,-0.7 3.21,-1.72 0.48,-0.66 0.81,-1.43 0.81,-2.31 0,-2.22 -1.8,-4.03 -4.03,-4.03 h -13.5 V 48.71 c 0,-3.34 -2.47,-8.06 -8.05,-8.06 -4.45,0 -8.06,3.61 -8.06,8.06 V 75 c 0,4.54 3.68,8.22 8.22,8.22 h 20.29 l 10.76,21.15 c 0.95,1.86 2.83,2.94 4.79,2.94 0.82,0 1.65,-0.19 2.43,-0.59 2.65,-1.34 3.7,-4.58 2.35,-7.22 z"
               id="path441"
               style="fill:#010101" /></g><rect
             style="opacity:1;fill:none;fill-opacity:1;stroke:#000000;stroke-width:2;stroke-linecap:square;stroke-linejoin:miter;stroke-miterlimit:10;stroke-dasharray:none;stroke-dashoffset:0;stroke-opacity:1"
             id="rect4482"
             width="43.824089"
             height="43.824089"
             x="342.14111"
             y="34.993763" /></g><g
           id="g6129"><rect
             style="fill:none;fill-opacity:1;stroke:#000000;stroke-width:2;stroke-linecap:square;stroke-linejoin:miter;stroke-miterlimit:10;stroke-dasharray:none;stroke-dashoffset:0;stroke-opacity:1"
             id="rect4511"
             width="43.824089"
             height="43.824089"
             x="242.14453"
             y="10.9418" /><g
             id="parking-5"
             transform="matrix(0.38337156,0,0,0.38337156,-18.497848,5.7782282)"
             style="stroke-width:0.690148"><path
               class="cls-5"
               d="m 726.37,79.86 v 21.97 H 714.76 V 39.42 h 20.33 c 4.17,0 7.78,0.49 10.83,1.47 3.05,0.98 5.57,2.35 7.55,4.1 1.99,1.76 3.45,3.86 4.4,6.3 0.95,2.45 1.42,5.12 1.42,8.03 0,2.91 -0.5,5.79 -1.51,8.31 -1.01,2.52 -2.52,4.68 -4.53,6.5 -2.02,1.81 -4.53,3.22 -7.55,4.23 -3.02,1.01 -6.56,1.51 -10.62,1.51 h -8.72 z m 0,-9.06 h 8.72 c 2.13,0 3.98,-0.27 5.57,-0.8 1.58,-0.53 2.89,-1.29 3.93,-2.29 1.04,-0.99 1.81,-2.2 2.33,-3.63 0.52,-1.43 0.78,-3.01 0.78,-4.77 0,-1.76 -0.26,-3.18 -0.78,-4.53 -0.52,-1.35 -1.29,-2.5 -2.33,-3.45 -1.04,-0.95 -2.35,-1.68 -3.93,-2.18 -1.58,-0.5 -3.44,-0.76 -5.57,-0.76 h -8.72 v 22.4 z"
               id="path450-6"
               style="fill:#231f20;stroke-width:0.690148" /></g></g><g
           id="g8023"><rect
             style="fill:none;fill-opacity:1;stroke:#000000;stroke-width:2;stroke-linecap:square;stroke-linejoin:miter;stroke-miterlimit:10;stroke-dasharray:none;stroke-dashoffset:0;stroke-opacity:1"
             id="rect4499"
             width="43.824089"
             height="43.824089"
             x="154.49634"
             y="10.9418" /><path
             d="m 172.68189,25.401621 a 2.2356525,2.2356525 0 1 0 0,-4.471305 2.2356525,2.2356525 0 1 0 0,4.471305 z m -0.39124,1.490435 c -1.69537,0 -3.2417,0.954809 -4.00089,2.47319 l -2.15647,4.312946 c -0.36795,0.735901 -0.0699,1.630162 0.66604,1.998113 0.7359,0.367952 1.63016,0.06987 1.99811,-0.666037 l 1.6488,-3.292929 v 2.012087 c 0,0.791794 0.31206,1.550982 0.87097,2.109895 l 3.60033,3.595676 v 3.851842 c 0,0.824396 0.66604,1.490435 1.49044,1.490435 0.82439,0 1.49043,-0.666039 1.49043,-1.490435 v -4.163902 c 0,-0.591517 -0.23754,-1.159746 -0.65672,-1.578931 l -2.32415,-2.328803 v -4.350208 l 3.27896,4.373496 c 0.4937,0.656722 1.42988,0.791794 2.08661,0.298086 0.65672,-0.493706 0.79179,-1.429886 0.29808,-2.086608 l -3.57704,-4.769392 c -0.84303,-1.127141 -2.17045,-1.788521 -3.57704,-1.788521 z m -1.83044,10.190848 -1.45783,5.840641 c -0.20028,0.796451 0.28411,1.606875 1.08522,1.807152 0.80111,0.200278 1.60688,-0.284114 1.80715,-1.085223 l 1.02468,-4.108011 -2.45922,-2.459217 z m 15.02079,7.372994 c 0.23288,0.340006 0.69864,0.423843 1.03865,0.186304 0.34,-0.237537 0.42384,-0.698641 0.1863,-1.038645 l -5.50529,-7.950539 c -0.13042,0.176989 -0.28412,0.340005 -0.47042,0.479734 -0.23288,0.176989 -0.48905,0.298086 -0.75454,0.367951 z"
             id="path8012"
             style="stroke-width:0.264583" /></g></g></g></g></svg>
